<?xml version="1.0" encoding="utf-8"?>
<!-- Generator: Adobe Illustrator 27.0.0, SVG Export Plug-In . SVG Version: 6.00 Build 0)  -->
<svg version="1.1" id="图层_1" xmlns="http://www.w3.org/2000/svg" xmlns:xlink="http://www.w3.org/1999/xlink" x="0px" y="0px"
	 viewBox="0 0 1500 384" style="enable-background:new 0 0 1500 384;" xml:space="preserve">
<style type="text/css">
	.st0{fill:#1565C0;}
	.st1{fill:#29B6F6;}
	.st2{fill:#F1AFA2;}
	.st3{fill:#E99C8C;}
	.st4{fill:#DBEDFF;}
	.st5{fill:#B5DCFF;}
	.st6{fill:#FFDECF;}
	.st7{fill:#FFCEBE;}
	.st8{fill:#B16E3D;}
	.st9{fill:#985E33;}
</style>
<g id="图层_1_xA0_图像_00000139267931428200678820000004124123415065215372_">
	<path class="st0" d="M94.4,193.9l11.8,7.9c11.4,7.6,18.3,20.5,18.3,34.2v40.2c0,7.5,6.1,13.7,13.6,13.7c0,0,0.1,0,0.1,0h13.7
		c7.6,0,13.7,6.1,13.7,13.7c0,7.6-6.1,13.7-13.7,13.7h-13.7c-10.9,0-21.4-4.3-29.1-12c-7.7-7.7-12.1-18.2-12.1-29.1V236
		c0-4.6-2.3-8.9-6.1-11.4l-28.9-19.3c-6.3-4.2-8-12.7-3.8-19c1-1.5,2.3-2.8,3.8-3.8L91,163.2c3.8-2.6,6.1-6.8,6.1-11.4v-40.2
		c0-10.9,4.3-21.4,12.1-29.1c7.7-7.7,18.2-12.1,29.1-12.1h13.7c7.6,0,13.7,6.1,13.7,13.7s-6.1,13.7-13.7,13.7h-13.7
		c-7.6,0-13.7,6.1-13.7,13.6c0,0,0,0.1,0,0.1v40.2c0,13.8-6.9,26.6-18.3,34.2L94.4,193.9z"/>
	<path class="st1" d="M521.6,193.9l-11.8-7.9c-11.4-7.6-18.3-20.5-18.3-34.2v-40.2c0-7.6-6.1-13.7-13.6-13.7c0,0,0,0-0.1,0H464
		c-7.6,0-13.7-6.1-13.7-13.7s6.1-13.7,13.7-13.7h13.7c10.9,0,21.4,4.3,29.1,12.1c7.7,7.7,12,18.2,12,29.1v40.2
		c0,4.6,2.3,8.9,6.1,11.4l28.9,19.3c6.3,4.2,8,12.7,3.8,19c-1,1.5-2.3,2.8-3.8,3.8L525,224.5c-3.8,2.6-6.1,6.8-6.1,11.4v40.2
		c0,10.9-4.3,21.4-12,29.1c-7.7,7.7-18.2,12-29.1,12H464c-7.6,0-13.7-6.1-13.7-13.7c0-7.6,6.1-13.7,13.7-13.7h13.7
		c7.5,0,13.7-6.1,13.7-13.6c0,0,0,0,0-0.1v-40.2c0-13.8,6.9-26.6,18.3-34.2L521.6,193.9z"/>
</g>
<g id="handshake__x28_1_x29__xA0_图像_00000177450566512432688340000017752032909438007981_">
	<g>
		<path class="st2" d="M383.7,210.3l-1.1-2.4l-0.5-5.3l-94.3-60.8l-5.3-3.5l-1.5-0.5c-5.1-1.9-10.5-3.1-16-3.4l-15-0.8
			c-2-0.1-3.9-0.1-5.9,0c-3.5,0.2-7.1-0.4-10.4-1.7l-10.8-4.5l-3,2.1l-25,62l1.4,3.3l21,13.2l6.6,4.7l4.2,0.1l65.6,46.3l0.6,4.3
			l9,6.7c5,3.7,12.1,3.3,16.4-1.2c4.2-4.4,4.4-11,1.1-15.6l4.5,3.3c5.2,3.8,12.5,3.2,16.7-1.6c4.1-4.7,4-11.5,0.2-16l2.5,1.9
			c4.9,3.6,11.8,3.3,16.2-1c4.6-4.6,4.7-11.8,0.8-16.5l3.8,2.8c5.3,3.9,12.9,2.9,17-2.3C385.7,219.7,385.9,214.4,383.7,210.3
			L383.7,210.3z"/>
		<path class="st3" d="M199.5,180.2l-4.5,11.2l1.4,3.3l21,13.2l6.6,4.7l4.2,0.1l65.6,46.3l0.6,4.3l9,6.7c5,3.7,12.1,3.3,16.4-1.2
			c0.4-0.4,0.7-0.8,1-1.2L199.5,180.2z"/>
		<path class="st4" d="M165.9,183.5l28-70.9c0.9-2.2,3.3-3.3,5.5-2.4l0,0l22.2,8.8c2.2,0.9,3.3,3.3,2.4,5.5l-28,70.9
			c-0.9,2.2-3.3,3.3-5.5,2.4l0,0l-22.2-8.8C166.1,188.1,165.1,185.6,165.9,183.5z"/>
		<path class="st5" d="M180.5,190.2l28.5-72.3c0.5-1.4,1.8-2.4,3.2-2.7l-12.8-5.1c-2.2-0.9-4.7,0.2-5.5,2.4l-28,70.9
			c-0.9,2.2,0.2,4.7,2.4,5.5l12.4,4.9C180.1,192.7,180,191.4,180.5,190.2L180.5,190.2z"/>
		<g>
			<path class="st6" d="M223.8,229.6c-4.6-3.9-5.1-10.7-1.2-15.2l10.1-11.9c3.9-4.6,10.7-5.1,15.2-1.2c4.6,3.9,5.1,10.7,1.2,15.2
				L239,228.4C235.1,232.9,228.3,233.5,223.8,229.6z"/>
			<path class="st6" d="M240.3,243.6c-4.6-3.9-5.1-10.7-1.2-15.2l10.1-11.9c3.9-4.6,10.7-5.1,15.2-1.2c4.5,3.9,5.1,10.7,1.2,15.2
				l-10.1,11.9C251.6,246.9,244.8,247.4,240.3,243.6z"/>
			<path class="st6" d="M256.8,257.6c-4.6-3.9-5.1-10.7-1.2-15.2l10.1-11.9c3.9-4.6,10.7-5.1,15.2-1.2c4.5,3.9,5.1,10.7,1.2,15.2
				L272,256.3C268.1,260.9,261.3,261.4,256.8,257.6z"/>
			<path class="st6" d="M273.2,271.6c-4.5-3.9-5.1-10.7-1.2-15.2l10.1-11.9c3.9-4.6,10.7-5.1,15.2-1.2c4.5,3.9,5.1,10.7,1.2,15.2
				l-10.1,11.9C284.6,274.9,277.8,275.4,273.2,271.6z"/>
		</g>
		<path class="st7" d="M233.7,216.1l10.1-11.9c1.1-1.3,2.5-2.3,4.1-3l0,0c-4.6-3.9-11.4-3.3-15.2,1.2l-10.1,11.9
			c-3.9,4.6-3.3,11.4,1.2,15.2c3.2,2.7,7.5,3.2,11.2,1.7C230.4,227.5,229.8,220.6,233.7,216.1L233.7,216.1z M250.2,230.1l10.1-11.9
			c1.1-1.3,2.5-2.3,4.1-3l0,0c-4.5-3.9-11.4-3.3-15.2,1.2L239,228.4c-3.9,4.6-3.3,11.4,1.2,15.2c3.2,2.7,7.5,3.2,11.2,1.7
			C246.9,241.4,246.3,234.6,250.2,230.1L250.2,230.1z M266.7,244.1l10.1-11.9c1.1-1.3,2.5-2.3,4.1-3l0,0c-4.5-3.9-11.4-3.3-15.2,1.2
			l-10.1,11.9c-3.9,4.6-3.3,11.4,1.3,15.2c3.2,2.7,7.5,3.2,11.2,1.7C263.4,255.4,262.8,248.6,266.7,244.1L266.7,244.1z M283.2,258
			l10.1-11.9c1.1-1.3,2.5-2.3,4.1-3l0,0c-4.5-3.9-11.4-3.3-15.2,1.2L272,256.3c-3.9,4.5-3.3,11.4,1.2,15.2c3.2,2.7,7.5,3.2,11.2,1.7
			C279.9,269.4,279.3,262.6,283.2,258L283.2,258z"/>
		<path class="st6" d="M383.3,129.6l-3.9-2.1l-15.8,5.8c-4.4,1.6-9.1,2.1-13.7,1.4l-46.5-7.4c-5.2-0.8-10.6,0.9-14.3,4.7
			c-7.7,7.8-22.2,21.6-38.1,31.8c-3.6,2.3-4.1,7.3-1,10.2c6.4,6.1,19.5,11.3,42.1-9.1c2.1-1.9,5.3-1.8,7.2,0.2
			c6.6,6.9,22.8,20.1,47,16l36.4,26.9l22.8-14.6l1.1-2.5L383.3,129.6z"/>
		<path class="st7" d="M257,175.1c15.9-10.2,30.4-24,38.1-31.8c3.7-3.8,9.1-5.5,14.3-4.7l46.5,7.4c4.6,0.7,9.3,0.3,13.7-1.4
			l15.8-5.8l1.5,0.8l-3.8-10.1l-3.9-2.1l-15.8,5.8c-4.4,1.6-9.1,2.1-13.7,1.4l-46.5-7.4c-5.2-0.8-10.6,0.9-14.3,4.7
			c-7.7,7.8-22.2,21.6-38.1,31.8c-3.6,2.3-4.1,7.3-1,10.2c1.4,1.3,3,2.5,5,3.5C255.4,176.4,256.1,175.6,257,175.1L257,175.1z"/>
		<path class="st8" d="M436.3,183.5l-28-70.9c-0.9-2.2-3.3-3.3-5.5-2.4l0,0l-22.2,8.8c-2.2,0.9-3.3,3.3-2.4,5.5l28,70.9
			c0.9,2.2,3.3,3.3,5.5,2.4l0,0l22.2-8.8C436.1,188.1,437.2,185.6,436.3,183.5L436.3,183.5L436.3,183.5z"/>
		<path class="st9" d="M422.4,191.5l-29.3-74.2c-0.4-1-0.4-2.2,0-3.2l-12.5,4.9c-2.2,0.9-3.3,3.3-2.4,5.5l28,70.9
			c0.9,2.2,3.3,3.3,5.5,2.4l0,0l11.9-4.7C423,192.6,422.7,192.1,422.4,191.5L422.4,191.5z"/>
		<g>
			<path class="st3" d="M341.7,255.3L317,236.2c-2.4-1.8-5.8-1.4-7.6,1s-1.4,5.8,1,7.6l10.7,8.3l4.5,3.3
				C330.5,260.1,337.4,259.6,341.7,255.3z M327,220.1c-1.8,2.4-1.4,5.8,1,7.6l14.6,11.2l2.3,1.7c4.9,3.6,11.8,3.3,16.2-1
				c0,0,0.1-0.1,0.1-0.1l-26.5-20.4C332.3,217.2,328.9,217.7,327,220.1L327,220.1z M352.6,202.1c-2.4-1.8-5.8-1.4-7.6,1
				c-1.8,2.4-1.4,5.8,1,7.6l16.1,12.4l3.6,2.7c5,3.7,11.8,3,16-1.3L352.6,202.1z"/>
		</g>
	</g>
</g>
<g id="code_help">
	<g>
		<path d="M631.8,230.6c-5.3,0-9.8-0.6-13.4-1.7s-6.6-3.1-8.8-5.9c-2.3-2.8-3.9-6.5-4.8-11.1c-1-4.6-1.4-10.4-1.4-17.4
			c0-7.1,0.5-13,1.4-17.7c1-4.7,2.5-8.4,4.8-11.2c2.2-2.8,5.2-4.8,8.7-6c3.6-1.2,8-1.8,13.3-1.8c5,0,9.5,0.4,13.5,1.2
			c4,0.8,7.8,1.8,11.4,3.1V148c-2.7-0.9-6.3-1.8-10.6-2.5s-9.2-1.1-14.5-1.1c-7.1,0-13.4,0.8-19,2.4c-5.5,1.6-10.2,4.3-14,8.2
			c-3.8,3.9-6.7,9-8.6,15.3c-2,6.4-2.9,14.3-2.9,23.9s1,17.6,2.9,23.9s4.8,11.4,8.6,15.3s8.5,6.6,14,8.2c5.5,1.6,11.8,2.4,19,2.4
			c2.2,0,4.6-0.1,7-0.3c2.4-0.2,4.8-0.4,7.1-0.8s4.5-0.7,6.4-1.2c2-0.4,3.6-0.9,4.9-1.3v-14c-3.4,1.4-7.4,2.5-11.8,3.1
			C640.7,230.3,636.3,230.6,631.8,230.6z M752.7,155c-3.7-3.9-8.4-6.6-13.9-8.2s-11.8-2.4-19-2.4s-13.4,0.8-19,2.4
			c-5.5,1.6-10.2,4.3-14,8.2c-3.8,3.9-6.7,9-8.6,15.3c-2,6.4-2.9,14.3-2.9,23.9s1,17.6,2.9,23.9s4.8,11.4,8.6,15.3s8.5,6.6,14,8.2
			c5.5,1.6,11.8,2.4,19,2.4s13.4-0.8,19-2.4c5.5-1.6,10.2-4.3,13.9-8.2c3.7-3.9,6.6-9,8.5-15.3c2-6.4,2.9-14.3,2.9-23.9
			s-1-17.6-2.9-23.9C759.3,164,756.4,158.9,752.7,155z M746.7,211.9c-0.9,4.8-2.4,8.5-4.5,11.4s-5,4.9-8.6,6.1
			c-3.6,1.2-8.2,1.8-13.6,1.8c-5.2,0-9.6-0.6-13.2-1.8c-3.6-1.2-6.5-3.2-8.7-6.1c-2.3-2.9-3.9-6.6-4.8-11.4
			c-1-4.7-1.4-10.6-1.4-17.6s0.5-12.9,1.3-17.6c0.9-4.7,2.4-8.5,4.6-11.4c2.2-2.9,5.1-4.9,8.7-6.1s8.1-1.9,13.4-1.9
			c5.2,0,9.6,0.6,13.3,1.9s6.5,3.3,8.7,6.1c2.2,2.9,3.8,6.6,4.7,11.4c1,4.8,1.4,10.6,1.4,17.6C748,201.3,747.5,207.2,746.7,211.9z
			 M856.6,162.9c-1-2.9-2.3-5.4-3.9-7.6s-3.7-4.2-6.2-5.8c-2.5-1.6-5.5-2.9-8.9-3.7s-7.5-1.3-12.3-1.3c-8,0-14.5,1.4-19.7,4.1
			c-5.2,2.7-9.2,6.4-12.2,10.9c-3,4.6-5,9.9-6.1,15.9c-1.1,6.1-1.7,12.3-1.7,18.9c0,7.4,0.6,14.1,1.7,20.2s3.2,11.4,6.1,15.8
			c3,4.4,7,7.8,12.2,10.2s11.7,3.6,19.7,3.6c8.8,0,15.7-1.7,20.8-5c5.1-3.3,8.6-7.5,10.5-12.6l2.3,15.8h13V107.1h-15.3L856.6,162.9
			L856.6,162.9z M855.8,209.7c-0.9,4.6-2.5,8.5-4.7,11.7c-2.3,3.2-5.3,5.6-9.1,7.3s-8.6,2.5-14.4,2.5c-5.7,0-10.2-1-13.6-2.9
			s-6-4.6-7.7-7.9c-1.8-3.3-2.9-7.2-3.5-11.8c-0.5-4.5-0.8-9.3-0.8-14.2c0-4.6,0.2-9.2,0.7-13.6c0.5-4.4,1.6-8.4,3.4-11.9
			c1.8-3.5,4.4-6.3,7.7-8.4c3.4-2.1,8-3.1,13.8-3.1s10.6,0.9,14.4,2.7s6.8,4.3,9.1,7.6c2.2,3.3,3.8,7.2,4.7,11.8
			c0.9,4.6,1.3,9.6,1.3,15C857.1,200,856.7,205.1,855.8,209.7z M973.5,157.5c-2.7-3.9-6.6-7-11.7-9.4c-5-2.4-11.7-3.6-19.8-3.6
			c-6.9,0-13,0.8-18.4,2.4c-5.4,1.6-10,4.3-13.7,8.2c-3.7,3.9-6.6,9-8.5,15.3c-2,6.4-2.9,14.3-2.9,23.9s1,17.6,2.9,23.9
			s4.8,11.4,8.6,15.3s8.5,6.6,14,8.2c5.5,1.6,11.8,2.4,19,2.4c3.4,0,6.8-0.1,10.1-0.4c3.3-0.3,6.3-0.7,9.2-1.2s5.4-1.2,7.7-1.9
			c2.2-0.7,4.1-1.4,5.5-2.1v-14.1c-3.7,1.8-8.3,3.3-13.8,4.4c-5.5,1.2-11,1.8-16.3,1.8c-5.8,0-10.7-0.6-14.6-1.9s-7.1-3.1-9.4-5.6
			c-2.4-2.5-4.1-5.7-5.2-9.5c-1.1-3.9-1.6-8.4-1.6-13.6l65.2-4.1c0.2-2.2,0.5-4.4,0.6-6.3c0.2-2,0.3-3.6,0.3-4.9
			c0-4.6-0.5-9.4-1.4-14.1C978.1,165.7,976.2,161.4,973.5,157.5z M914.4,188.6c0.1-4.9,0.6-9.3,1.4-13.2c0.8-3.9,2.2-7.2,4.3-10
			s4.8-4.8,8.3-6.2s8-2.1,13.6-2.1c5.2,0,9.4,0.7,12.5,2.2c3.1,1.5,5.4,3.5,7,6.1c1.6,2.6,2.6,5.5,3.1,8.9c0.5,3.4,0.7,6.9,0.7,10.6
			L914.4,188.6z M1104.2,144.4c-7,0-13.1,1.2-18.4,3.5s-9.2,5.8-11.7,10.4v-51.3h-24v135.3h24V179c1.5-5.5,4.1-9.3,7.7-11.5
			c3.6-2.2,8.4-3.3,14.3-3.3c6.2,0,10.4,1.4,12.6,4.3c2.2,2.9,3.4,7.7,3.4,14.6v59.3h24v-65.9c0-10.8-2.4-18.8-7.3-24.1
			C1124,147.1,1115.8,144.4,1104.2,144.4z M1204.4,144.4c-10.3,0-18.9,1.5-25.7,4.5c-6.8,3-12,8.2-15.6,15.5
			c-3.6,7.3-5.3,17.2-5.3,29.8s1.8,22.5,5.3,29.8c3.6,7.3,8.7,12.5,15.5,15.5c6.8,3,15.3,4.5,25.6,4.5c7.6,0,14.7-0.6,21.4-2
			c6.6-1.3,11.5-2.9,14.6-4.6v-19.2c-3.4,1.8-8.2,3.4-14.2,4.7s-11.9,2.1-17.4,2.1c-9,0-15.6-1.8-19.8-5.2s-6.5-9.1-6.8-16.6
			l62.5-3.9c0.6-5.1,0.9-9.4,0.9-13c0-13.3-2.9-23.6-8.7-30.9C1230.6,148.1,1219.9,144.4,1204.4,144.4z M1181.8,186.4
			c0.4-8.4,2.2-14.5,5.4-18.2c3.3-3.7,9-5.6,17.2-5.6c7.4,0,12.3,1.8,14.9,5.3c2.6,3.6,3.8,8.7,3.8,15.3L1181.8,186.4z
			 M1292.3,222.1c-1.2-1.5-1.8-4.4-1.8-8.6V107.1h-24v112.1c0,8.5,2,14.7,6.1,18.5c4,3.8,11,5.7,20.8,5.7c3.9,0,7.5-0.4,10.9-1.1
			v-18.7c-1.9,0.5-3.7,0.7-5.5,0.7C1295.6,224.4,1293.5,223.6,1292.3,222.1z M1408.9,167.1c-2.1-7.2-6-12.8-11.7-16.7
			c-5.6-4-13.5-6-23.6-6c-14.9,0-24.7,4.8-29.4,14.4v-12.6h-24V278h24v-48.6c2,4.8,5.3,8.4,9.9,10.9s11.1,3.8,19.5,3.8
			c14.5,0,24.5-4.4,30.1-13.3s8.4-21,8.4-36.6C1412.1,183.4,1411,174.3,1408.9,167.1z M1383.4,217.6c-2.7,5.5-8.4,8.2-16.9,8.2
			c-8.8,0-14.9-2.6-18.4-7.9s-5.2-13.1-5.2-23.6c0-10.7,1.7-18.6,5.2-23.9c3.4-5.2,9.6-7.8,18.5-7.8c5.8,0,10.3,1.3,13.3,3.9
			c3.1,2.6,5.1,6.2,6.1,10.7s1.5,10.2,1.5,17.1C1387.5,204.4,1386.2,212.1,1383.4,217.6z"/>
	</g>
</g>
</svg>
