<?xml version="1.0" encoding="utf-8"?>
<!-- Generator: Adobe Illustrator 27.0.0, SVG Export Plug-In . SVG Version: 6.00 Build 0)  -->
<svg version="1.1" id="图层_1" xmlns="http://www.w3.org/2000/svg" xmlns:xlink="http://www.w3.org/1999/xlink" x="0px" y="0px"
	 viewBox="0 0 504.1 384" style="enable-background:new 0 0 504.1 384;" xml:space="preserve">
<style type="text/css">
	.st0{fill:#1565C0;}
	.st1{fill:#29B6F6;}
	.st2{fill:#F1AFA2;}
	.st3{fill:#E99C8C;}
	.st4{fill:#DBEDFF;}
	.st5{fill:#B5DCFF;}
	.st6{fill:#FFDECF;}
	.st7{fill:#FFCEBE;}
	.st8{fill:#B16E3D;}
	.st9{fill:#985E33;}
</style>
<g id="图层_1_xA0_图像_00000139267931428200678820000004124123415065215372_">
	<path class="st0" d="M38.4,193.9l11.8,7.9c11.4,7.6,18.3,20.5,18.3,34.2v40.2c0,7.5,6.1,13.7,13.6,13.7c0,0,0.1,0,0.1,0H96
		c7.6,0,13.7,6.1,13.7,13.7c0,7.6-6.1,13.7-13.7,13.7H82.3c-10.9,0-21.4-4.3-29.1-12c-7.7-7.7-12.1-18.2-12.1-29.1V236
		c0-4.6-2.3-8.9-6.1-11.4L6.1,205.3c-6.3-4.2-8-12.7-3.8-19c1-1.5,2.3-2.8,3.8-3.8L35,163.2c3.8-2.6,6.1-6.8,6.1-11.4v-40.2
		c0-10.9,4.3-21.4,12.1-29.1c7.7-7.7,18.2-12.1,29.1-12.1H96c7.6,0,13.7,6.1,13.7,13.7S103.5,97.9,96,97.9H82.3
		c-7.6,0-13.7,6.1-13.7,13.6c0,0,0,0.1,0,0.1v40.2c0,13.8-6.9,26.6-18.3,34.2L38.4,193.9z"/>
	<path class="st1" d="M465.6,193.9l-11.8-7.9c-11.4-7.6-18.3-20.5-18.3-34.2v-40.2c0-7.6-6.1-13.7-13.6-13.7c0,0,0,0-0.1,0h-13.7
		c-7.6,0-13.7-6.1-13.7-13.7s6.1-13.7,13.7-13.7h13.7c10.9,0,21.4,4.3,29.1,12.1c7.7,7.7,12,18.2,12,29.1v40.2
		c0,4.6,2.3,8.9,6.1,11.4l28.9,19.3c6.3,4.2,8,12.7,3.8,19c-1,1.5-2.3,2.8-3.8,3.8L469,224.5c-3.8,2.6-6.1,6.8-6.1,11.4v40.2
		c0,10.9-4.3,21.4-12,29.1c-7.7,7.7-18.2,12-29.1,12h-13.7c-7.6,0-13.7-6.1-13.7-13.7c0-7.6,6.1-13.7,13.7-13.7h13.7
		c7.5,0,13.7-6.1,13.7-13.6c0,0,0,0,0-0.1v-40.2c0-13.8,6.9-26.6,18.3-34.2L465.6,193.9z"/>
</g>
<g id="handshake__x28_1_x29__xA0_图像_00000177450566512432688340000017752032909438007981_">
	<g>
		<path class="st2" d="M327.8,210.3l-1.1-2.4l-0.5-5.3l-94.3-60.8l-5.3-3.5l-1.5-0.5c-5.1-1.9-10.5-3.1-16-3.4l-15-0.8
			c-2-0.1-3.9-0.1-5.9,0c-3.5,0.2-7.1-0.4-10.4-1.7l-10.8-4.5l-3,2.1l-25,62l1.4,3.3l21,13.2l6.6,4.7l4.2,0.1l65.6,46.3l0.6,4.3
			l9,6.7c5,3.7,12.1,3.3,16.4-1.2c4.2-4.4,4.4-11,1.1-15.6l4.5,3.3c5.2,3.8,12.5,3.2,16.7-1.6c4.1-4.7,4-11.5,0.2-16l2.5,1.9
			c4.9,3.6,11.8,3.3,16.2-1c4.6-4.6,4.7-11.8,0.8-16.5l3.8,2.8c5.3,3.9,12.9,2.9,17-2.3C329.8,219.7,330,214.4,327.8,210.3
			L327.8,210.3z"/>
		<path class="st3" d="M143.6,180.2l-4.5,11.2l1.4,3.3l21,13.2l6.6,4.7l4.2,0.1l65.6,46.3l0.6,4.3l9,6.7c5,3.7,12.1,3.3,16.4-1.2
			c0.4-0.4,0.7-0.8,1-1.2L143.6,180.2z"/>
		<path class="st4" d="M110,183.5l28-70.9c0.9-2.2,3.3-3.3,5.5-2.4l0,0l22.2,8.8c2.2,0.9,3.3,3.3,2.4,5.5l-28,70.9
			c-0.9,2.2-3.3,3.3-5.5,2.4l0,0l-22.2-8.8C110.2,188.1,109.1,185.6,110,183.5z"/>
		<path class="st5" d="M124.5,190.2l28.5-72.3c0.5-1.4,1.8-2.4,3.2-2.7l-12.8-5.1c-2.2-0.9-4.7,0.2-5.5,2.4l-28,70.9
			c-0.9,2.2,0.2,4.7,2.4,5.5l12.4,4.9C124.2,192.7,124.1,191.4,124.5,190.2L124.5,190.2z"/>
		<g>
			<path class="st6" d="M167.8,229.6c-4.6-3.9-5.1-10.7-1.2-15.2l10.1-11.9c3.9-4.6,10.7-5.1,15.2-1.2c4.6,3.9,5.1,10.7,1.2,15.2
				l-10.1,11.9C179.2,232.9,172.4,233.5,167.8,229.6z"/>
			<path class="st6" d="M184.3,243.6c-4.6-3.9-5.1-10.7-1.2-15.2l10.1-11.9c3.9-4.6,10.7-5.1,15.2-1.2c4.5,3.9,5.1,10.7,1.2,15.2
				l-10.1,11.9C195.7,246.9,188.9,247.4,184.3,243.6z"/>
			<path class="st6" d="M200.8,257.6c-4.6-3.9-5.1-10.7-1.2-15.2l10.1-11.9c3.9-4.6,10.7-5.1,15.2-1.2c4.5,3.9,5.1,10.7,1.2,15.2
				l-10.1,11.9C212.2,260.9,205.4,261.4,200.8,257.6z"/>
			<path class="st6" d="M217.3,271.6c-4.5-3.9-5.1-10.7-1.2-15.2l10.1-11.9c3.9-4.6,10.7-5.1,15.2-1.2c4.5,3.9,5.1,10.7,1.2,15.2
				l-10.1,11.9C228.7,274.9,221.9,275.4,217.3,271.6z"/>
		</g>
		<path class="st7" d="M177.8,216.1l10.1-11.9c1.1-1.3,2.5-2.3,4.1-3l0,0c-4.6-3.9-11.4-3.3-15.2,1.2l-10.1,11.9
			c-3.9,4.6-3.3,11.4,1.2,15.2c3.2,2.7,7.5,3.2,11.2,1.7C174.5,227.5,173.9,220.6,177.8,216.1L177.8,216.1z M194.2,230.1l10.1-11.9
			c1.1-1.3,2.5-2.3,4.1-3l0,0c-4.5-3.9-11.4-3.3-15.2,1.2l-10.1,11.9c-3.9,4.6-3.3,11.4,1.2,15.2c3.2,2.7,7.5,3.2,11.2,1.7
			C190.9,241.4,190.4,234.6,194.2,230.1L194.2,230.1z M210.7,244.1l10.1-11.9c1.1-1.3,2.5-2.3,4.1-3l0,0c-4.5-3.9-11.4-3.3-15.2,1.2
			l-10.1,11.9c-3.9,4.6-3.3,11.4,1.3,15.2c3.2,2.7,7.5,3.2,11.2,1.7C207.4,255.4,206.9,248.6,210.7,244.1L210.7,244.1z M227.2,258
			l10.1-11.9c1.1-1.3,2.5-2.3,4.1-3l0,0c-4.5-3.9-11.4-3.3-15.2,1.2l-10.1,11.9c-3.9,4.5-3.3,11.4,1.2,15.2
			c3.2,2.7,7.5,3.2,11.2,1.7C223.9,269.4,223.4,262.6,227.2,258L227.2,258z"/>
		<path class="st6" d="M327.4,129.6l-3.9-2.1l-15.8,5.8c-4.4,1.6-9.1,2.1-13.7,1.4l-46.5-7.4c-5.2-0.8-10.6,0.9-14.3,4.7
			c-7.7,7.8-22.2,21.6-38.1,31.8c-3.6,2.3-4.1,7.3-1,10.2c6.4,6.1,19.5,11.3,42.1-9.1c2.1-1.9,5.3-1.8,7.2,0.2
			c6.6,6.9,22.8,20.1,47,16l36.4,26.9l22.8-14.6l1.1-2.5L327.4,129.6z"/>
		<path class="st7" d="M201.1,175.1c15.9-10.2,30.4-24,38.1-31.8c3.7-3.8,9.1-5.5,14.3-4.7l46.5,7.4c4.6,0.7,9.3,0.3,13.7-1.4
			l15.8-5.8l1.5,0.8l-3.8-10.1l-3.9-2.1l-15.8,5.8c-4.4,1.6-9.1,2.1-13.7,1.4l-46.5-7.4c-5.2-0.8-10.6,0.9-14.3,4.7
			c-7.7,7.8-22.2,21.6-38.1,31.8c-3.6,2.3-4.1,7.3-1,10.2c1.4,1.3,3,2.5,5,3.5C199.4,176.4,200.2,175.6,201.1,175.1L201.1,175.1z"/>
		<path class="st8" d="M380.4,183.5l-28-70.9c-0.9-2.2-3.3-3.3-5.5-2.4l0,0l-22.2,8.8c-2.2,0.9-3.3,3.3-2.4,5.5l28,70.9
			c0.9,2.2,3.3,3.3,5.5,2.4l0,0L378,189C380.2,188.1,381.2,185.6,380.4,183.5L380.4,183.5L380.4,183.5z"/>
		<path class="st9" d="M366.5,191.5l-29.3-74.2c-0.4-1-0.4-2.2,0-3.2l-12.5,4.9c-2.2,0.9-3.3,3.3-2.4,5.5l28,70.9
			c0.9,2.2,3.3,3.3,5.5,2.4l0,0l11.9-4.7C367.1,192.6,366.7,192.1,366.5,191.5L366.5,191.5z"/>
		<g>
			<path class="st3" d="M285.8,255.3l-24.7-19.1c-2.4-1.8-5.8-1.4-7.7,1s-1.4,5.8,1,7.6l10.7,8.3l4.5,3.3
				C274.5,260.1,281.5,259.6,285.8,255.3z M271.1,220.1c-1.8,2.4-1.4,5.8,1,7.6l14.6,11.2l2.3,1.7c4.9,3.6,11.8,3.3,16.2-1
				c0,0,0.1-0.1,0.1-0.1l-26.5-20.4C276.4,217.2,272.9,217.7,271.1,220.1L271.1,220.1z M296.6,202.1c-2.4-1.8-5.8-1.4-7.6,1
				c-1.8,2.4-1.4,5.8,1,7.6l16.1,12.4l3.6,2.7c5,3.7,11.8,3,16-1.3L296.6,202.1z"/>
		</g>
	</g>
</g>
</svg>
